<?xml version="1.0" standalone="no"?><!DOCTYPE svg PUBLIC "-//W3C//DTD SVG 1.1//EN" "http://www.w3.org/Graphics/SVG/1.1/DTD/svg11.dtd"><svg t="1750928795748" class="icon" viewBox="0 0 1024 1024" version="1.1" xmlns="http://www.w3.org/2000/svg" p-id="3709" id="mx_n_1750928795750" data-spm-anchor-id="a313x.search_index.0.i2.55463a81S41eWN" xmlns:xlink="http://www.w3.org/1999/xlink" width="200" height="200"><path d="M423 163.5c-6.9 5.7-11.3 14.3-11.3 23.9 0 17.1 13.9 31 31 31s31-13.9 31-31c0-9-3.8-17-9.9-22.7-13.1-5.8-27.8-6.1-40.8-1.2zM338.8 542c0 17.1 13.9 31 31 31s31-13.9 31-31-13.9-31-31-31c-5.4 0-10.5 1.4-14.9 3.8l-15.4 20.7c-0.5 2.1-0.7 4.3-0.7 6.5zM296.5 344c-17.1 0-31 13.9-31 31 0 1.8 0.2 3.7 0.5 5.4 3.1 6.7 7.5 13 13.4 18.1 2.7 2.4 5.6 4.5 8.7 6.2 2.7 0.8 5.5 1.2 8.4 1.2 17.1 0 31-13.9 31-31s-13.9-30.9-31-30.9zM544.3 236.6c-17.1 0-31 13.9-31 31s13.9 31 31 31 31-13.9 31-31c0-3.2-0.5-6.3-1.4-9.2L549.6 237c-1.7-0.3-3.5-0.4-5.3-0.4zM621.1 271c52.4 39.2 126.6 27.9 165.8-24.5 39.2-52.4 27.9-126.6-24.5-165.8-52.4-38.9-126.6-28.2-165.8 24.5-39.1 52.5-28.1 126.6 24.5 165.8zM675.3 399.3c15.1 0 27.6-10.8 30.4-25.1l-40.1-35.3c-12.3 4.1-21.2 15.7-21.2 29.4 0 17.1 13.8 31 30.9 31zM271 697.8c-17.1 0-31 13.9-31 31s13.9 31 31 31 31-13.9 31-31c-0.1-17.1-14-31-31-31zM134.1 883.5c-17.1 0-31 13.9-31 31s13.9 31 31 31 31-13.9 31-31c0-17.2-13.9-31-31-31z" p-id="3710"></path><path d="M869.9 351c-28.1 0-51-22.9-51-51 0-10.1 3-19.6 8.1-27.5-5.2 2.9-10 6.7-14.1 11.3L722.7 387c-7.5 18.8-25.9 32.2-47.4 32.2-28.1 0-51-22.9-51-51 0-18.6 10-34.8 24.9-43.7l-54.8-48.1c-4.2 23.9-25.1 42-50.2 42-28.1 0-51-22.9-51-51 0-22.8 15-42.1 35.7-48.6l-35.4-31.2c-0.2 27.9-23 50.6-50.9 50.6-27.4 0-49.8-21.7-50.9-48.9l-117 133.4c-2.9 3.2-5.3 6.8-7.2 10.4 8.3-5.8 18.3-9.1 29.1-9.1 28.1 0 51 22.9 51 51 0 12.6-4.6 24.1-12.1 33 7.4-3 14.3-7.8 19.9-14.2l91.4-104.4 46 40.5-120.3 161.2c26.8 1.5 48.2 23.7 48.2 50.9 0 28.1-22.9 51-51 51-22 0-40.9-14.1-47.9-33.7L94.9 863.8c-9.8 13.2-13.5 29.3-11.4 44.6 3-25.3 24.5-45 50.6-45 28.1 0 51 22.9 51 51 0 19.3-10.8 36.1-26.6 44.8 13.3-3.3 25.5-11 34.2-22.8l225.8-303.2 38.2 27.9-93.9 126.4c-5.3 7.1-8.8 15.1-10.6 23.4 9.3-10.7 23.1-17.5 38.4-17.5 28.1 0 51 22.9 51 51 0 15.8-7.2 29.9-18.5 39.2 14.5-2.7 28.1-10.7 37.5-23.5L576.7 704c-26.3-2-47.1-24-47.1-50.8 0-28.1 22.9-51 51-51h0.1c-0.8-0.8-1.6-1.7-2.4-2.5l-53.1-39.4L616.1 438l53.2 46.9c2.5-25.8 24.3-46 50.7-46 28.1 0 51 22.9 51 51 0 1.6-0.1 3.1-0.2 4.7l122.8-139.9c4.4-5 7.7-10.6 9.9-16.5-8.9 8-20.7 12.8-33.6 12.8zM271 779.8c-28.1 0-51-22.9-51-51s22.9-51 51-51 51 22.9 51 51c-0.1 28.1-22.9 51-51 51z" p-id="3711"></path><path d="M720 459.1c-17.1 0-31 13.9-31 31 0 6 1.7 11.7 4.7 16.4 12.3 9.5 27.5 12.8 41.9 10.3 9.1-5.4 15.3-15.3 15.3-26.7 0.1-17.2-13.8-31-30.9-31zM888.8 279c-4.9-4.3-10.3-7.6-16.1-9.8-0.9-0.1-1.8-0.1-2.8-0.1-17.1 0-31 13.9-31 31s13.9 31 31 31 31-13.9 31-31c0-2.4-0.3-4.8-0.8-7-2.9-5.2-6.7-10-11.3-14.1zM390.6 813.4c-17.1 0-31 13.9-31 31s13.9 31 31 31 31-13.9 31-31-13.9-31-31-31zM549.7 653.3c0 17.1 13.9 31 31 31 4.5 0 8.8-1 12.7-2.7 10.9-17 10.9-36.7 3.4-54.7-4.7-2.9-10.2-4.5-16.1-4.5-17.2-0.1-31 13.8-31 30.9z" p-id="3712"></path></svg>